<svg xmlns="http://www.w3.org/2000/svg" xml:space="preserve" width="100.25" height="100" style="max-height:500px"><style>.st0{fill-rule:evenodd;clip-rule:evenodd}</style><path fill="#e30909" d="M99.69 28.98 85.35 14.64 71.02.31 70.71 0H29.29l-.31.31-14.34 14.33L.31 28.98l-.31.31v41.43l.31.31 14.34 14.34 14.34 14.34.3.3h41.43l.31-.31 14.34-14.34 14.34-14.34.3-.3V29.28l-.32-.3zM97.9 69.84 83.87 83.87 69.84 97.9H30.16L16.13 83.87 2.1 69.84V30.16l14.03-14.03L30.16 2.1h39.68l14.03 14.03L97.9 30.16v39.68z" class="st0"/><path fill="#e30909" d="M95.91 30.98 82.46 17.54 69.02 4.09H30.98L17.54 17.54 4.09 30.98v38.04l13.45 13.45 13.45 13.45h38.04l13.45-13.45 13.45-13.45V30.98zM54.92 84.84c-11.15.57-19.03-4.79-25.59-13.56L19.07 57.56a3.751 3.751 0 0 1 5.24-5.26l9.39 6.53c1.32.92 2.43.52 2.43-1.95V21.21c0-2.07 1.68-3.75 3.75-3.75 2.07 0 3.75 1.68 3.75 3.75v22.53c0 .65.53 1.18 1.18 1.18.65 0 1.18-.53 1.18-1.18V17.6c0-2.07 1.68-3.75 3.75-3.75 2.07 0 3.75 1.68 3.75 3.75v26.14c0 .65.53 1.18 1.18 1.18.65 0 1.18-.53 1.18-1.18V21.01c0-2.07 1.68-3.75 3.75-3.75 2.07 0 3.75 1.68 3.75 3.75v22.74c0 .65.53 1.18 1.18 1.18.65 0 1.18-.53 1.18-1.18V28.79c0-2.07 1.68-3.75 3.75-3.75 2.07 0 3.75 1.68 3.75 3.75v32.8c.76 17.54-6.5 22.64-18.29 23.25z" class="st0"/><text y="115" fill="#e30909" font-family="'Helvetica Neue', Helvetica, Arial-Unicode, Arial, Sans-serif" font-size="5" font-weight="bold">Created by INDRAWATI</text><text y="120" fill="#e30909" font-family="'Helvetica Neue', Helvetica, Arial-Unicode, Arial, Sans-serif" font-size="5" font-weight="bold">from the Noun Project</text></svg>